<svg width="720" height="480" viewBox="0 0 720 480" xmlns="http://www.w3.org/2000/svg" role="img" aria-label="ERP dashboards">
  <rect width="720" height="480" rx="36" fill="#EEF2FF"/>
  <rect x="48" y="64" width="232" height="128" rx="18" fill="white" stroke="#CBD5F5" stroke-width="2"/>
  <rect x="320" y="64" width="352" height="128" rx="18" fill="white" stroke="#CBD5F5" stroke-width="2"/>
  <rect x="48" y="216" width="624" height="200" rx="24" fill="white" stroke="#CBD5F5" stroke-width="2"/>
  <rect x="64" y="232" width="224" height="16" rx="8" fill="#312E81" opacity="0.2"/>
  <rect x="64" y="256" width="320" height="24" rx="12" fill="#4338CA" opacity="0.5"/>
  <rect x="64" y="296" width="160" height="16" rx="8" fill="#312E81" opacity="0.2"/>
  <rect x="64" y="320" width="280" height="24" rx="12" fill="#4338CA"/>
  <rect x="368" y="248" width="256" height="136" rx="18" fill="#EEF2FF"/>
  <circle cx="384" cy="128" r="48" fill="#C7D2FE"/>
  <circle cx="384" cy="128" r="28" fill="white"/>
  <rect x="448" y="96" width="208" height="24" rx="12" fill="#4338CA" opacity="0.4"/>
  <rect x="448" y="132" width="144" height="18" rx="9" fill="#312E81" opacity="0.3"/>
  <rect x="448" y="168" width="96" height="18" rx="9" fill="#312E81" opacity="0.2"/>
  <rect x="368" y="272" width="208" height="16" rx="8" fill="#4338CA" opacity="0.6"/>
  <rect x="368" y="304" width="256" height="16" rx="8" fill="#4338CA" opacity="0.3"/>
  <rect x="368" y="336" width="192" height="16" rx="8" fill="#4338CA" opacity="0.4"/>
  <rect x="368" y="368" width="136" height="16" rx="8" fill="#4338CA" opacity="0.5"/>
  <rect x="64" y="96" width="176" height="16" rx="8" fill="#312E81" opacity="0.2"/>
  <rect x="64" y="120" width="120" height="18" rx="9" fill="#312E81" opacity="0.2"/>
  <rect x="64" y="148" width="200" height="18" rx="9" fill="#4338CA" opacity="0.3"/>
</svg>

